<?xml version="1.0" standalone="no"?><!DOCTYPE svg PUBLIC "-//W3C//DTD SVG 1.1//EN" "http://www.w3.org/Graphics/SVG/1.1/DTD/svg11.dtd"><svg t="1544404836164" class="icon" style="" viewBox="0 0 1024 1024" version="1.1" xmlns="http://www.w3.org/2000/svg" p-id="2455" xmlns:xlink="http://www.w3.org/1999/xlink" width="200" height="200"><defs><style type="text/css"></style></defs><path d="M1011.2 147.2l-64 64-134.4-128 64-64c25.6-25.6 51.2 6.4 51.2 6.4l76.8 83.2C1036.8 121.6 1011.2 147.2 1011.2 147.2zM608 544l-128 70.4-64-70.4 51.2-121.6 320-313.6 140.8 134.4L608 544zM448 633.6l-70.4 12.8 19.2-64L448 633.6zM627.2 172.8 147.2 172.8C128 172.8 108.8 185.6 108.8 211.2l0 665.6c0 19.2 19.2 38.4 38.4 38.4l665.6 0c19.2 0 38.4-19.2 38.4-38.4L851.2 390.4c0 0 6.4-44.8 57.6-44.8 0 0 57.6 12.8 57.6 44.8l0 524.8c0 64-51.2 108.8-108.8 108.8L108.8 1024c-64 0-108.8-51.2-108.8-108.8L0 172.8c0-64 51.2-108.8 108.8-108.8l518.4 0c44.8 0 38.4 57.6 38.4 57.6C672 153.6 627.2 172.8 627.2 172.8z" p-id="2456"></path></svg>