<?xml version="1.0" standalone="no"?><!DOCTYPE svg PUBLIC "-//W3C//DTD SVG 1.1//EN" "http://www.w3.org/Graphics/SVG/1.1/DTD/svg11.dtd"><svg t="1544183900000" class="icon" style="" viewBox="0 0 1026 1024" version="1.1" xmlns="http://www.w3.org/2000/svg" p-id="1283" xmlns:xlink="http://www.w3.org/1999/xlink" width="200.390625" height="200"><defs><style type="text/css"></style></defs><path d="M995.401359 562.720194a497.996744 497.996744 0 0 1-503.802406 461.227555A505.092553 505.092553 0 0 1 0.052943 533.046813 498.641818 498.641818 0 0 1 461.280498 28.599334a36.124116 36.124116 0 0 1 37.414263 36.769189v425.748512a34.833969 34.833969 0 0 0 34.188896 34.83397h427.038659a35.479043 35.479043 0 0 1 35.479043 36.769189z" fill="#BFCBD9" p-id="1284"></path><path d="M1025.719813 401.451819A469.61351 469.61351 0 0 0 619.96858 0.861173a54.831248 54.831248 0 0 0-64.507351 53.541101v371.562338a36.76919 36.76919 0 0 0 36.76919 36.124116h374.787705a55.476321 55.476321 0 0 0 58.701689-60.636909z" fill="#BFCBD9" p-id="1285"></path></svg>