<?xml version="1.0" standalone="no"?><!DOCTYPE svg PUBLIC "-//W3C//DTD SVG 1.1//EN" "http://www.w3.org/Graphics/SVG/1.1/DTD/svg11.dtd"><svg t="1543559091557" class="icon" style="" viewBox="0 0 1024 1024" version="1.1" xmlns="http://www.w3.org/2000/svg" p-id="3816" xmlns:xlink="http://www.w3.org/1999/xlink" width="200" height="200"><defs><style type="text/css"></style></defs><path d="M955.558743 746.519175a190.90256 190.90256 0 0 0-29.758373-64.506473l33.393174-55.701953-29.555384-29.601382-57.643847 34.636106a186.861781 186.861781 0 0 0-60.690681-24.068683l-16.619091-66.516363h-41.747717l-16.63909 66.516363a184.467912 184.467912 0 0 0-60.218707 24.362667l-58.116822-34.907091-29.533385 29.600381 33.507168 55.949941a189.502637 189.502637 0 0 0-30.007359 64.326482l-59.404751 14.857187v41.837712l55.159983 13.796246a188.170709 188.170709 0 0 0 27.998469 75.751857l-27.276508 45.563508 29.533384 29.62338 43.509621-26.14557c23.142734 17.385049 50.079261 30.006359 79.747639 35.200075l11.740358 46.895436h41.747717l11.764356-46.941433a187.629739 187.629739 0 0 0 79.612647-35.200075l43.576616 26.191567 29.555384-29.62338-27.523495-45.924488c14.292218-22.443773 24.565657-47.754388 28.268454-75.390877l55.136985-13.795246v-41.837712l-59.516745-14.948182zM773.822682 896.396978A104.539283 104.539283 0 0 1 669.351395 791.789699a104.539283 104.539283 0 0 1 104.471287-104.584281 104.539283 104.539283 0 0 1 104.449288 104.584281 104.562282 104.562282 0 0 1-104.449288 104.607279zM588.585812 571.42175c-33.619161-24.610654-71.981064-43.012648-113.231808-55.159983 81.035568-39.015866 137.391486-121.134375 137.391486-217.071129 0-133.417704-108.130087-241.569789-241.524791-241.569789S129.65191 165.772934 129.65191 299.190638c0 95.484778 55.926941 177.265306 136.375542 216.50716C117.233589 559.5454 8.878514 693.798058 8.878514 852.752365c0 0 185.280867 50.327248 368.46185 50.327248 47.302413 0 94.311842-3.521807 138.06945-8.714524a280.111681 280.111681 0 0 1-23.41472-112.057871c0.022999-84.377386 37.864929-159.248291 96.591718-210.885468z" p-id="3817" fill="#333333"></path></svg>