<?xml version="1.0" standalone="no"?><!DOCTYPE svg PUBLIC "-//W3C//DTD SVG 1.1//EN" "http://www.w3.org/Graphics/SVG/1.1/DTD/svg11.dtd"><svg t="1543558991001" class="icon" style="" viewBox="0 0 1024 1024" version="1.1" xmlns="http://www.w3.org/2000/svg" p-id="2514" xmlns:xlink="http://www.w3.org/1999/xlink" width="200" height="200"><defs><style type="text/css"></style></defs><path d="M175.104 446.464q-19.456 0-32.768-13.312t-13.312-33.792l0-98.304q0-18.432 13.312-32.256t32.768-13.824l417.792 0q19.456 0 32.768 13.824t13.312 32.256l0 98.304q0 20.48-13.312 33.792t-32.768 13.312l-417.792 0zM629.76 528.384q-59.392 23.552-103.424 68.608t-65.536 105.472l-285.696 0q-19.456 0-32.768-13.824t-13.312-33.28l0-99.328q0-18.432 13.312-31.744t32.768-13.312l417.792 0q22.528 0 36.864 17.408zM236.544 191.488q-9.216 0-17.92-6.144t-15.36-15.36-10.24-20.48-3.584-20.48 3.584-20.48 10.24-20.992 15.36-16.384 17.92-6.656l208.896 0q0-11.264 0.512-22.528t3.072-20.48 7.168-15.36 11.776-6.144l23.552 0q13.312 0 19.456 20.992t9.216 43.52l100.352 0q38.912 0 76.288 11.776t66.56 33.28 47.104 51.712 17.92 67.072l0 7.168 0 290.816q-23.552-8.192-47.104-12.288t-50.176-4.096q-7.168 0-13.824 0.512t-13.824 0.512l0-275.456q0-20.48-18.432-31.744t-37.888-12.288l-410.624 0zM731.136 579.584q45.056 0 84.992 17.408t69.12 46.592 46.08 69.12 16.896 83.968q0 45.056-16.896 84.48t-46.08 69.12-69.12 46.592-84.992 16.896-83.968-16.896-68.096-46.592-46.08-69.12-16.896-84.48q0-44.032 16.896-83.968t46.08-69.12 68.096-46.592 83.968-17.408zM814.08 894.976q15.36 0 26.112-9.728t10.752-25.088q0-14.336-10.752-24.576t-26.112-10.24l-150.528 0q-14.336 0-24.576 10.24t-10.24 24.576q0 15.36 10.24 25.088t24.576 9.728l150.528 0zM816.128 765.952q15.36 0 25.6-10.752t10.24-25.088-10.24-21.504-25.6-7.168l-157.696 0q-15.36 0-25.6 7.168t-10.24 21.504 10.24 25.088 25.6 10.752l157.696 0zM444.416 796.672q0 69.632 30.208 128.512t81.408 98.816l-232.448 0q-14.336 0-19.968-7.68t-5.12-16.384 8.192-16.384 19.968-7.68q24.576 0 47.104-6.656t39.936-29.184q6.144-8.192 9.728-20.48t5.632-26.624l-192.512 0q-9.216 0-17.92-6.144t-15.36-15.36-10.752-20.48-4.096-20.48 4.096-19.968 10.752-19.968 15.36-14.848 17.92-5.632l208.896 0q0 6.144-0.512 13.312t-0.512 13.312z" p-id="2515"></path></svg>